<svg xmlns="http://www.w3.org/2000/svg" viewBox="0 0 64 64" width="64" height="64">
  <defs>
    <linearGradient id="blue" x1="0" y1="0" x2="1" y2="1">
      <stop offset="0%" stop-color="#3b5bdb"/>
      <stop offset="100%" stop-color="#5c7cfa"/>
    </linearGradient>
    <linearGradient id="red" x1="1" y1="0" x2="0" y2="1">
      <stop offset="0%" stop-color="#e8590c"/>
      <stop offset="100%" stop-color="#f03e3e"/>
    </linearGradient>
    <linearGradient id="navy" x1="0" y1="0" x2="1" y2="1">
      <stop offset="0%" stop-color="#1a2b4a"/>
      <stop offset="100%" stop-color="#16213e"/>
    </linearGradient>
  </defs>
  <!-- Navy circle -->
  <circle cx="32" cy="32" r="32" fill="url(#navy)"/>
  <!-- Left blue triangle (points right) -->
  <path d="M14 18 L30 32 L14 46 Z" fill="none" stroke="url(#blue)" stroke-width="2.5" stroke-linejoin="round"/>
  <!-- Right red triangle (points left) -->
  <path d="M50 18 L34 32 L50 46 Z" fill="none" stroke="url(#red)" stroke-width="2.5" stroke-linejoin="round"/>
  <!-- Network nodes left -->
  <g fill="#5c7cfa">
    <circle cx="20" cy="26" r="1.6"/><circle cx="24" cy="32" r="2"/><circle cx="20" cy="38" r="1.6"/><circle cx="26" cy="29" r="1.3"/>
  </g>
  <g stroke="#5c7cfa" stroke-width="0.8" opacity="0.7">
    <line x1="20" y1="26" x2="24" y2="32"/><line x1="24" y1="32" x2="20" y2="38"/><line x1="24" y1="32" x2="26" y2="29"/>
  </g>
  <!-- Network nodes right -->
  <g fill="#ff8787">
    <circle cx="44" cy="26" r="1.6"/><circle cx="40" cy="32" r="2"/><circle cx="44" cy="38" r="1.6"/><circle cx="38" cy="29" r="1.3"/>
  </g>
  <g stroke="#ff8787" stroke-width="0.8" opacity="0.7">
    <line x1="44" y1="26" x2="40" y2="32"/><line x1="40" y1="32" x2="44" y2="38"/><line x1="40" y1="32" x2="38" y2="29"/>
  </g>
  <!-- Center purple play -->
  <path d="M29.5 25 L38 32 L29.5 39 Z" fill="#7048e8"/>
</svg>
